<svg width="120" height="121" viewBox="0 0 120 121" fill="none" xmlns="http://www.w3.org/2000/svg">
<path d="M15 60.5H60V68.0625H15V60.5ZM7.5 41.5938H45V49.1562H7.5V41.5938Z" fill="white"/>
<path d="M112.196 62.7914L100.946 36.3227C100.658 35.6424 100.177 35.0625 99.5643 34.6552C98.9517 34.2478 98.2338 34.0308 97.5 34.0313H86.25V26.4688C86.25 25.4659 85.8549 24.5041 85.1516 23.795C84.4484 23.0859 83.4945 22.6875 82.5 22.6875H22.5V30.25H78.75V77.7274C77.0412 78.7279 75.5458 80.0596 74.3499 81.6457C73.1541 83.2318 72.2815 85.0409 71.7825 86.9688H48.2175C47.3047 83.4043 45.1341 80.2979 42.1124 78.2318C39.0908 76.1657 35.4255 75.2817 31.8037 75.7456C28.1819 76.2094 24.8522 77.9893 22.4388 80.7515C20.0253 83.5137 18.6938 87.0687 18.6938 90.75C18.6938 94.4313 20.0253 97.9863 22.4388 100.749C24.8522 103.511 28.1819 105.291 31.8037 105.754C35.4255 106.218 39.0908 105.334 42.1124 103.268C45.1341 101.202 47.3047 98.0957 48.2175 94.5313H71.7825C72.5982 97.7765 74.4638 100.655 77.0841 102.711C79.7044 104.767 82.9298 105.883 86.25 105.883C89.5701 105.883 92.7955 104.767 95.4158 102.711C98.0361 100.655 99.9017 97.7765 100.717 94.5313H108.75C109.745 94.5313 110.698 94.1329 111.402 93.4238C112.105 92.7146 112.5 91.7529 112.5 90.75V64.2813C112.5 63.769 112.397 63.2621 112.196 62.7914ZM33.75 98.3125C32.2666 98.3125 30.8166 97.869 29.5832 97.038C28.3498 96.207 27.3885 95.0259 26.8209 93.6441C26.2532 92.2622 26.1047 90.7416 26.3941 89.2746C26.6835 87.8077 27.3978 86.4601 28.4467 85.4025C29.4956 84.3449 30.8319 83.6246 32.2868 83.3328C33.7417 83.041 35.2497 83.1908 36.6201 83.7632C37.9905 84.3356 39.1619 85.3049 39.986 86.5485C40.8101 87.7921 41.25 89.2543 41.25 90.75C41.248 92.7551 40.4572 94.6775 39.0511 96.0953C37.645 97.5131 35.7385 98.3105 33.75 98.3125ZM86.25 41.5938H95.025L103.065 60.5H86.25V41.5938ZM86.25 98.3125C84.7666 98.3125 83.3166 97.869 82.0832 97.038C80.8498 96.207 79.8885 95.0259 79.3209 93.6441C78.7532 92.2622 78.6047 90.7416 78.8941 89.2746C79.1835 87.8077 79.8978 86.4601 80.9467 85.4025C81.9956 84.3449 83.3319 83.6246 84.7868 83.3328C86.2417 83.041 87.7496 83.1908 89.1201 83.7632C90.4905 84.3356 91.6619 85.3049 92.486 86.5485C93.3101 87.7921 93.75 89.2543 93.75 90.75C93.748 92.7551 92.9572 94.6775 91.5511 96.0953C90.145 97.5131 88.2385 98.3105 86.25 98.3125ZM105 86.9688H100.717C99.8914 83.7299 98.0228 80.8589 95.4046 78.806C92.7864 76.7531 89.5666 75.6343 86.25 75.625V68.0625H105V86.9688Z" fill="white"/>
</svg>
