<svg width="20" height="19" viewBox="0 0 20 19" fill="none" xmlns="http://www.w3.org/2000/svg">
<path d="M9.87493 15.7936L9.77716 15.8952L9.66961 15.7936C5.02546 11.4161 1.95543 8.52144 1.95543 5.58616C1.95543 3.55483 3.42201 2.03133 5.37744 2.03133C6.88312 2.03133 8.34969 3.047 8.86788 4.4283H10.6864C11.2046 3.047 12.6712 2.03133 14.1769 2.03133C16.1323 2.03133 17.5989 3.55483 17.5989 5.58616C17.5989 8.52144 14.5289 11.4161 9.87493 15.7936ZM14.1769 0C12.4757 0 10.8429 0.822689 9.77716 2.11258C8.71145 0.822689 7.07866 0 5.37744 0C2.36607 0 0 2.44775 0 5.58616C0 9.41522 3.32423 12.5536 8.35947 17.2968L9.77716 18.6375L11.1948 17.2968C16.2301 12.5536 19.5543 9.41522 19.5543 5.58616C19.5543 2.44775 17.1882 0 14.1769 0Z" fill="white"/>
</svg>
