<svg width="41" height="41" viewBox="0 0 41 41" fill="none" xmlns="http://www.w3.org/2000/svg">
<g clip-path="url(#clip0_1437_4)">
<path d="M39.5863 20.0432C39.5863 9.24979 30.8365 0.5 20.0431 0.5C9.24977 0.5 0.5 9.24979 0.5 20.0432V20.9568C0.5 31.7502 9.24977 40.5 20.0431 40.5C30.8365 40.5 39.5863 31.7502 39.5863 20.9568V20.0432Z" fill="white" fill-opacity="0.5" stroke="#FF0202"/>
<path d="M20 30.35L18.55 29.03C13.4 24.36 10 21.27 10 17.5C10 14.41 12.42 12 15.5 12C17.24 12 18.91 12.81 20 14.08C21.09 12.81 22.76 12 24.5 12C27.58 12 30 14.41 30 17.5C30 21.27 26.6 24.36 21.45 29.03L20 30.35Z" fill="#FF0202"/>
</g>
<defs>
<clipPath id="clip0_1437_4">
<rect width="41" height="41" fill="white"/>
</clipPath>
</defs>
</svg>
