<svg width="25" height="24" viewBox="0 0 25 24" fill="none" xmlns="http://www.w3.org/2000/svg">
<rect width="25" height="24" fill="#FAF1F1"/>
<g id="article details page">
<rect width="1440" height="3276" transform="translate(-1363 -364)" fill="#1E1E1E"/>
<g id="section_article">
<g id="detail article">
<g id="material-symbols:delete-outline-rounded">
<path id="Vector" d="M7.7354 21C7.19765 21 6.73715 20.804 6.35388 20.412C5.97062 20.02 5.77931 19.5493 5.77997 19V6C5.50295 6 5.27058 5.904 5.08285 5.712C4.89513 5.52 4.8016 5.28267 4.80225 5C4.80225 4.71667 4.89611 4.479 5.08383 4.287C5.27155 4.095 5.5036 3.99934 5.77997 4H9.69083C9.69083 3.71667 9.78469 3.479 9.97241 3.287C10.1601 3.095 10.3922 2.99934 10.6685 3H14.5794C14.8564 3 15.0888 3.096 15.2765 3.288C15.4642 3.48 15.5578 3.71734 15.5571 4H19.468C19.745 4 19.9774 4.096 20.1651 4.288C20.3528 4.48 20.4464 4.71734 20.4457 5C20.4457 5.28334 20.3518 5.521 20.1641 5.713C19.9764 5.905 19.7444 6.00067 19.468 6V19C19.468 19.55 19.2764 20.021 18.8931 20.413C18.5098 20.805 18.0496 21.0007 17.5126 21H7.7354ZM7.7354 6V19H17.5126V6H7.7354ZM9.69083 16C9.69083 16.2833 9.78469 16.521 9.97241 16.713C10.1601 16.905 10.3922 17.0007 10.6685 17C10.9456 17 11.1779 16.904 11.3657 16.712C11.5534 16.52 11.6469 16.2827 11.6463 16V9C11.6463 8.71667 11.5524 8.479 11.3647 8.287C11.177 8.095 10.9449 7.99934 10.6685 8C10.3915 8 10.1592 8.096 9.97143 8.288C9.78371 8.48 9.69018 8.71734 9.69083 9V16ZM13.6017 16C13.6017 16.2833 13.6956 16.521 13.8833 16.713C14.071 16.905 14.303 17.0007 14.5794 17C14.8564 17 15.0888 16.904 15.2765 16.712C15.4642 16.52 15.5578 16.2827 15.5571 16V9C15.5571 8.71667 15.4633 8.479 15.2755 8.287C15.0878 8.095 14.8558 7.99934 14.5794 8C14.3024 8 14.07 8.096 13.8823 8.288C13.6946 8.48 13.601 8.71734 13.6017 9V16Z" fill="white"/>
</g>
</g>
</g>
</g>
</svg>
