<svg width="41" height="41" viewBox="0 0 41 41" fill="none" xmlns="http://www.w3.org/2000/svg">
<g clip-path="url(#clip0_1437_4)">
<path d="M39.5863 20.0432C39.5863 9.24979 30.8365 0.5 20.0431 0.5C9.24977 0.5 0.5 9.24979 0.5 20.0432V20.9568C0.5 31.7502 9.24977 40.5 20.0431 40.5C30.8365 40.5 39.5863 31.7502 39.5863 20.9568V20.0432Z" fill="#ACACAC" fill-opacity="0.4" stroke="white"/>
<path d="M19.8749 27.7936L19.7772 27.8952L19.6696 27.7936C15.0255 23.4161 11.9554 20.5214 11.9554 17.5862C11.9554 15.5548 13.422 14.0313 15.3774 14.0313C16.8831 14.0313 18.3497 15.047 18.8679 16.4283H20.6864C21.2046 15.047 22.6712 14.0313 24.1769 14.0313C26.1323 14.0313 27.5989 15.5548 27.5989 17.5862C27.5989 20.5214 24.5289 23.4161 19.8749 27.7936ZM24.1769 12C22.4757 12 20.8429 12.8227 19.7772 14.1126C18.7114 12.8227 17.0787 12 15.3774 12C12.3661 12 10 14.4478 10 17.5862C10 21.4152 13.3242 24.5536 18.3595 29.2968L19.7772 30.6375L21.1948 29.2968C26.2301 24.5536 29.5543 21.4152 29.5543 17.5862C29.5543 14.4478 27.1882 12 24.1769 12Z" fill="white"/>
</g>
<defs>
<clipPath id="clip0_1437_4">
<rect width="41" height="41" fill="white"/>
</clipPath>
</defs>
</svg>
