<svg width="21" height="44" viewBox="0 0 21 44" fill="none" xmlns="http://www.w3.org/2000/svg">
<path d="M19.9183 1.30031C20.3955 1.86439 20.6345 2.53256 20.6355 3.3048C20.6364 4.07704 20.399 4.74487 19.9231 5.30829L5.98198 21.8607L20.0108 38.4447C20.4562 38.9712 20.6793 39.6295 20.6803 40.4199C20.6813 41.2102 20.4438 41.8878 19.968 42.4527C19.4922 43.0176 18.9284 43.3004 18.2766 43.301C17.6247 43.3015 17.0608 43.0198 16.5849 42.4557L0.551913 23.4461C0.361045 23.2205 0.225426 22.976 0.145057 22.7126C0.0646887 22.4492 0.0249576 22.167 0.0258645 21.866C0.0255008 21.5649 0.0651848 21.2826 0.144917 21.0191C0.224649 20.7556 0.359042 20.5108 0.548094 20.2849L16.5828 1.24682C17.0269 0.719556 17.5749 0.455631 18.2267 0.455053C18.8785 0.454475 19.4424 0.736229 19.9183 1.30031Z" fill="#D9D9D9" fill-opacity="0.5"/>
</svg>
