<svg width="24" height="25" viewBox="0 0 24 25" fill="none" xmlns="http://www.w3.org/2000/svg">
<path d="M12.1 18.8405L12 18.942L11.89 18.8405C7.14 14.463 4 11.5683 4 8.63304C4 6.60171 5.5 5.07821 7.5 5.07821C9.04 5.07821 10.54 6.09387 11.07 7.47518H12.93C13.46 6.09387 14.96 5.07821 16.5 5.07821C18.5 5.07821 20 6.60171 20 8.63304C20 11.5683 16.86 14.463 12.1 18.8405ZM16.5 3.04688C14.76 3.04688 13.09 3.86956 12 5.15946C10.91 3.86956 9.24 3.04688 7.5 3.04688C4.42 3.04688 2 5.49463 2 8.63304C2 12.4621 5.4 15.6005 10.55 20.3437L12 21.6843L13.45 20.3437C18.6 15.6005 22 12.4621 22 8.63304C22 5.49463 19.58 3.04688 16.5 3.04688Z" fill="white"/>
</svg>
