<svg width="40" height="40" viewBox="0 0 40 40" fill="none" xmlns="http://www.w3.org/2000/svg">
<path d="M11.6668 35C10.7501 35 9.96509 34.6733 9.31175 34.02C8.65842 33.3667 8.33231 32.5822 8.33342 31.6667V10C7.8612 10 7.46509 9.84001 7.14509 9.52001C6.82509 9.20001 6.66564 8.80445 6.66675 8.33334C6.66675 7.86112 6.82675 7.46501 7.14675 7.14501C7.46675 6.82501 7.86231 6.66556 8.33342 6.66667H15.0001C15.0001 6.19445 15.1601 5.79834 15.4801 5.47834C15.8001 5.15834 16.1956 4.99889 16.6668 5.00001H23.3334C23.8056 5.00001 24.2018 5.16001 24.5218 5.48001C24.8418 5.80001 25.0012 6.19556 25.0001 6.66667H31.6668C32.139 6.66667 32.5351 6.82667 32.8551 7.14667C33.1751 7.46667 33.3345 7.86223 33.3334 8.33334C33.3334 8.80556 33.1734 9.20167 32.8534 9.52167C32.5334 9.84167 32.1379 10.0011 31.6668 10V31.6667C31.6668 32.5833 31.3401 33.3683 30.6868 34.0217C30.0334 34.675 29.249 35.0011 28.3334 35H11.6668ZM11.6668 10V31.6667H28.3334V10H11.6668ZM15.0001 26.6667C15.0001 27.1389 15.1601 27.535 15.4801 27.855C15.8001 28.175 16.1956 28.3344 16.6668 28.3333C17.139 28.3333 17.5351 28.1733 17.8551 27.8533C18.1751 27.5333 18.3345 27.1378 18.3334 26.6667V15C18.3334 14.5278 18.1734 14.1317 17.8534 13.8117C17.5334 13.4917 17.1379 13.3322 16.6668 13.3333C16.1945 13.3333 15.7984 13.4933 15.4784 13.8133C15.1584 14.1333 14.999 14.5289 15.0001 15V26.6667ZM21.6668 26.6667C21.6668 27.1389 21.8268 27.535 22.1468 27.855C22.4668 28.175 22.8623 28.3344 23.3334 28.3333C23.8056 28.3333 24.2018 28.1733 24.5218 27.8533C24.8418 27.5333 25.0012 27.1378 25.0001 26.6667V15C25.0001 14.5278 24.8401 14.1317 24.5201 13.8117C24.2001 13.4917 23.8045 13.3322 23.3334 13.3333C22.8612 13.3333 22.4651 13.4933 22.1451 13.8133C21.8251 14.1333 21.6656 14.5289 21.6668 15V26.6667Z" fill="white"/>
</svg>
