<svg width="22" height="44" viewBox="0 0 22 44" fill="none" xmlns="http://www.w3.org/2000/svg">
<path d="M4.89547 1.07328L20.9391 20.0515C21.1295 20.2774 21.2649 20.5222 21.345 20.7859C21.4252 21.0496 21.4649 21.3322 21.464 21.6337C21.4643 21.9352 21.4254 22.2178 21.3471 22.4817C21.2688 22.7455 21.1341 22.9906 20.9429 23.2168L4.94525 42.28C4.50219 42.8079 3.94789 43.0722 3.28234 43.0728C2.61679 43.0734 2.04598 42.7913 1.5699 42.2264C1.09383 41.6616 0.855337 41.0024 0.854427 40.2487C0.853517 39.495 1.09042 38.8354 1.56512 38.2697L15.5216 21.639L1.52497 5.03302C1.08064 4.50585 0.858001 3.85563 0.857067 3.08237C0.856133 2.30911 1.09302 1.6404 1.56773 1.07623C2.04244 0.510561 2.59672 0.227445 3.23058 0.226883C3.86443 0.226321 4.4194 0.508452 4.89547 1.07328Z" fill="#D9D9D9"/>
</svg>
