<svg width="24" height="25" viewBox="0 0 24 25" fill="none" xmlns="http://www.w3.org/2000/svg">
<g id="mdi:cards-heart-outline">
<path id="Vector" d="M11.9223 18.8405L11.8245 18.942L11.717 18.8405C7.07282 14.463 4.00279 11.5683 4.00279 8.63304C4.00279 6.60171 5.46937 5.07821 7.4248 5.07821C8.93048 5.07821 10.3971 6.09387 10.9152 7.47518H12.7338C13.252 6.09387 14.7186 5.07821 16.2242 5.07821C18.1797 5.07821 19.6462 6.60171 19.6462 8.63304C19.6462 11.5683 16.5762 14.463 11.9223 18.8405ZM16.2242 3.04688C14.523 3.04688 12.8902 3.86956 11.8245 5.15946C10.7588 3.86956 9.12603 3.04688 7.4248 3.04688C4.41344 3.04688 2.04736 5.49463 2.04736 8.63304C2.04736 12.4621 5.3716 15.6005 10.4068 20.3437L11.8245 21.6843L13.2422 20.3437C18.2774 15.6005 21.6017 12.4621 21.6017 8.63304C21.6017 5.49463 19.2356 3.04688 16.2242 3.04688Z" fill="white"/>
</g>
</svg>
